Coordinates
version=1
nRows=10
nColumns=34
inDegrees=yes

Units are S.I. units (second, meters, Newtons, ...)
Angles are in degrees.

endheader
time	pelvis_tilt	pelvis_list	pelvis_rotation	pelvis_tx	pelvis_ty	pelvis_tz	hip_flexion_r	hip_adduction_r	hip_rotation_r	knee_angle_r	ankle_angle_r	subtalar_angle_r	mtp_angle_r	hip_flexion_l	hip_adduction_l	hip_rotation_l	knee_angle_l	socket_flexion	socket_adduction	socket_rotation	socket_tx	socket_ty	socket_tz	pros_ankle_rx	pros_ankle_ry	pros_ankle_rz	pros_ankle_tx	pros_ankle_ty	pros_ankle_tz	foot_flex	lumbar_extension	lumbar_bending	lumbar_rotation
      0.30000000	      0.96791455	     -5.42328820	      4.36327707	     -0.38787761	      1.04769358	      0.34016130	     10.20283405	     -0.33427983	    -14.52737310	    -64.30199125	     -2.24358687	     10.80904537	     14.42537067	     11.21370849	     -3.15684829	      3.39885381	    -10.92652305	      6.54056236	     -0.37595325	      3.84529913	      0.06954327	     -0.01498187	     -0.00630719	      0.00000000	      0.00000000	      0.00000000	      0.00000000	      0.00000000	      0.00000000	      0.43240462	    -11.51872926	     -2.46401090	    -24.69970564
      0.30416667	      1.04557941	     -5.50173653	      4.43007462	     -0.38264800	      1.04850976	      0.33997318	     10.74021235	     -0.27221846	    -14.58133892	    -64.30371059	     -1.26385653	     10.79613328	     14.47587337	     10.72212388	     -3.28300526	      3.40169006	    -10.82062004	      6.42317090	     -0.35195778	      3.88373718	      0.06944460	     -0.01503379	     -0.00634400	      0.00000000	      0.00000000	      0.00000000	      0.00000000	      0.00000000	      0.00000000	      0.53552719	    -11.54866285	     -2.35596053	    -24.85585780
      0.30833333	      1.11944948	     -5.57927752	      4.49727405	     -0.37745159	      1.04930906	      0.33979359	     11.27042362	     -0.21410476	    -14.64361107	    -64.24574765	     -0.31542419	     10.82752074	     14.50003676	     10.24266681	     -3.40325718	      3.39956882	    -10.72015123	      6.30846709	     -0.31811640	      3.92570129	      0.06937376	     -0.01505624	     -0.00624126	      0.00000000	      0.00000000	      0.00000000	      0.00000000	      0.00000000	      0.00000000	      0.63399335	    -11.59112443	     -2.25198112	    -25.01878126
      0.31250000	      1.18546845	     -5.65208620	      4.55944370	     -0.37221447	      1.05008221	      0.33959982	     11.78342040	     -0.17778067	    -14.73533538	    -64.11369905	      0.55300074	     10.82657064	     14.52666588	      9.75570281	     -3.52856831	      3.40527741	    -10.61035357	      6.18811974	     -0.28693037	      3.96197783	      0.06919307	     -0.01503984	     -0.00633543	      0.00000000	      0.00000000	      0.00000000	      0.00000000	      0.00000000	      0.00000000	      0.73901069	    -11.58383457	     -2.12139537	    -25.16362113
      0.31666667	      1.25475937	     -5.73818812	      4.63264130	     -0.36708965	      1.05083809	      0.33939786	     12.29387977	     -0.11610307	    -14.82458192	    -63.93129458	      1.39158864	     10.85734151	     14.54442996	      9.29743447	     -3.65544839	      3.40506035	    -10.52467753	      6.09105139	     -0.25444535	      4.00505530	      0.06907781	     -0.01508431	     -0.00618288	      0.00000000	      0.00000000	      0.00000000	      0.00000000	      0.00000000	      0.00000000	      0.82157294	    -11.61512446	     -1.99567030	    -25.31336895
      0.32083333	      1.31264477	     -5.83434875	      4.70016148	     -0.36194207	      1.05157095	      0.33919005	     12.79542567	     -0.05181148	    -14.93302774	    -63.67761228	      2.17428981	     10.89346159	     14.55150838	      8.84841878	     -3.79758721	      3.40251615	    -10.42931165	      5.98322040	     -0.21920329	      4.04502373	      0.06905304	     -0.01506381	     -0.00610388	      0.00000000	      0.00000000	      0.00000000	      0.00000000	      0.00000000	      0.00000000	      0.91661744	    -11.62970894	     -1.85327079	    -25.45861515
      0.32500000	      1.36690580	     -5.92603185	      4.76772555	     -0.35684662	      1.05229317	      0.33901711	     13.29071243	      0.01358182	    -15.04111802	    -63.37852658	      2.93800241	     10.94804169	     14.54565060	      8.41428555	     -3.93238425	      3.40031636	    -10.34412902	      5.88491490	     -0.17993214	      4.09225277	      0.06900546	     -0.01500483	     -0.00595123	      0.00000000	      0.00000000	      0.00000000	      0.00000000	      0.00000000	      0.00000000	      1.00059795	    -11.65524559	     -1.71419176	    -25.60933007
      0.32916667	      1.40867143	     -6.01621151	      4.82606933	     -0.35172926	      1.05297122	      0.33881556	     13.77284574	      0.05952970	    -15.16968790	    -63.00095621	      3.58595555	     10.97093600	     14.54589547	      7.98802451	     -4.05783704	      3.38353776	    -10.25231062	      5.78414508	     -0.15290283	      4.11596981	      0.06892792	     -0.01495151	     -0.00576882	      0.00000000	      0.00000000	      0.00000000	      0.00000000	      0.00000000	      0.00000000	      1.09018698	    -11.65698565	     -1.58392124	    -25.73194434
      0.33333333	      1.46377805	     -6.13260676	      4.89813296	     -0.34672170	      1.05363267	      0.33863393	     14.24690693	      0.15613688	    -15.28502765	    -62.59165381	      4.29241965	     11.04953876	     14.52289793	      7.57646323	     -4.22732694	      3.38323424	    -10.17280910	      5.68983793	     -0.11232675	      4.18562199	      0.06900485	     -0.01487822	     -0.00574158	      0.00000000	      0.00000000	      0.00000000	      0.00000000	      0.00000000	      0.00000000	      1.17280466	    -11.70106554	     -1.41130819	    -25.88927292
      0.33750000	      1.52018333	     -6.24827002	      4.97003399	     -0.34171069	      1.05428868	      0.33844776	     14.69465131	      0.23725380	    -15.43085201	    -62.11504862	      4.91631963	     11.17033121	     14.42869779	      7.16742457	     -4.39491135	      3.36612901	    -10.09848598	      5.59365431	     -0.05031440	      4.25716533	      0.06909996	     -0.01481457	     -0.00558111	      0.00000000	      0.00000000	      0.00000000	      0.00000000	      0.00000000	      0.00000000	      1.25086394	    -11.77455221	     -1.22469270	    -26.06023474
